<?xml version="1.0" encoding="UTF-8" standalone="no"?>
<svg
   xmlns:dc="http://purl.org/dc/elements/1.1/"
   xmlns:cc="http://creativecommons.org/ns#"
   xmlns:rdf="http://www.w3.org/1999/02/22-rdf-syntax-ns#"
   xmlns:svg="http://www.w3.org/2000/svg"
   xmlns="http://www.w3.org/2000/svg"
   xmlns:sodipodi="http://sodipodi.sourceforge.net/DTD/sodipodi-0.dtd"
   xmlns:inkscape="http://www.inkscape.org/namespaces/inkscape"
   width="128"
   height="128"
   viewBox="0 0 128 128"
   fill="none"
   version="1.1"
   id="svg8"
   sodipodi:docname="cream.svg"
   inkscape:version="1.0.2 (1.0.2+r75+1)">
  <metadata
     id="metadata14">
    <rdf:RDF>
      <cc:Work
         rdf:about="">
        <dc:format>image/svg+xml</dc:format>
        <dc:type
           rdf:resource="http://purl.org/dc/dcmitype/StillImage" />
        <dc:title></dc:title>
      </cc:Work>
    </rdf:RDF>
  </metadata>
  <defs
     id="defs12" />
  <sodipodi:namedview
     pagecolor="#ffffff"
     bordercolor="#666666"
     borderopacity="1"
     objecttolerance="10"
     gridtolerance="10"
     guidetolerance="10"
     inkscape:pageopacity="0"
     inkscape:pageshadow="2"
     inkscape:window-width="1366"
     inkscape:window-height="705"
     id="namedview10"
     showgrid="false"
     inkscape:zoom="1.2566667"
     inkscape:cx="91.36524"
     inkscape:cy="81.492727"
     inkscape:window-x="0"
     inkscape:window-y="30"
     inkscape:window-maximized="1"
     inkscape:current-layer="svg8" />
  <path
     d="m 34.612414,21.935629 c 13.108129,-22.70387758 45.878012,-22.70387758 58.986125,0 L 123.09228,73.01943 c 13.10806,22.703673 -3.27759,51.08374 -29.493741,51.08374 H 34.612414 c -26.2163976,0 -42.6014832,-28.380067 -29.4933837,-51.08374 z"
     fill="#e8afaf"
     id="path2"
     style="stroke-width:0.681117" />
  <path
     fill-rule="evenodd"
     clip-rule="evenodd"
     d="m 82.878471,124.10317 c 11.877996,-15.47561 19.369549,-38.118539 19.369549,-63.343852 0,-10.755534 -1.36151,-21.041108 -3.844938,-30.502411 l -4.804543,-8.321278 c -13.108113,-22.70387758 -45.877996,-22.70387758 -58.986125,0 L 5.1190303,73.01943 c -13.1080995,22.703673 3.2769861,51.08374 29.4933837,51.08374 z"
     fill="#d56868"
     id="path4"
     style="stroke-width:0.681117" />
  <path
     fill-rule="evenodd"
     clip-rule="evenodd"
     d="M 35.203686,124.10317 C 46.951537,108.22434 54.569838,82.713079 54.569838,53.948142 54.569838,37.517221 52.08376,22.147933 47.762743,9.0290049 42.539931,11.866264 37.941677,16.168475 34.612414,21.935629 L 5.1190303,73.01943 c -13.1080995,22.703673 3.2769861,51.08374 29.4933837,51.08374 z"
     fill="#c24646"
     id="path6"
     style="stroke-width:0.681117" />
</svg>