<?xml version="1.0" encoding="UTF-8" standalone="no"?>
<svg
   width="128"
   height="128"
   viewBox="0 0 128 128"
   fill="none"
   version="1.1"
   id="svg6857"
   sodipodi:docname="com.github.jeysonflores.hasher.svg"
   inkscape:version="1.1 (c68e22c387, 2021-05-23)"
   xmlns:inkscape="http://www.inkscape.org/namespaces/inkscape"
   xmlns:sodipodi="http://sodipodi.sourceforge.net/DTD/sodipodi-0.dtd"
   xmlns="http://www.w3.org/2000/svg"
   xmlns:svg="http://www.w3.org/2000/svg">
  <defs
     id="defs6861" />
  <sodipodi:namedview
     id="namedview6859"
     pagecolor="#ffffff"
     bordercolor="#999999"
     borderopacity="1"
     inkscape:pageshadow="0"
     inkscape:pageopacity="0"
     inkscape:pagecheckerboard="0"
     showgrid="false"
     inkscape:zoom="2"
     inkscape:cx="-16.25"
     inkscape:cy="20.75"
     inkscape:window-width="1366"
     inkscape:window-height="707"
     inkscape:window-x="0"
     inkscape:window-y="30"
     inkscape:window-maximized="1"
     inkscape:current-layer="svg6857" />
  <rect
     style="fill:#ffffff;stroke-width:1.00156"
     id="rect6916"
     width="120"
     height="120.37627"
     x="4.1784782"
     y="4.277771" />
  <g
     id="g6870"
     transform="matrix(0.35,0,0,0.35,12.035172,12.173287)">
    <rect
       width="300"
       height="300"
       rx="10"
       fill="#cd9ef7"
       id="rect6843"
       x="0"
       y="0" />
    <path
       d="m 0,71.911262 h 260 c 2.209,0 4,1.788692 4,3.995069 v 27.965499 c 0,2.20626 -1.791,3.99506 -4,3.99506 H 0 Z"
       fill="#ffffff"
       id="path6845"
       style="stroke-width:0.999383" />
    <rect
       x="72"
       y="71.911263"
       width="36"
       height="191.76337"
       rx="4"
       fill="#ffffff"
       id="rect6847"
       style="stroke-width:0.999383" />
    <rect
       x="192"
       y="35.955631"
       width="36"
       height="191.76337"
       rx="4"
       fill="#ffffff"
       id="rect6849"
       style="stroke-width:0.999383" />
    <path
       d="m 36,195.75844 c 0,-2.20628 1.7909,-3.99508 4,-3.99508 h 260 v 35.95563 H 40 c -2.2091,0 -4,-1.78879 -4,-3.99506 z"
       fill="#ffffff"
       id="path6851"
       style="stroke-width:0.999383" />
    <rect
       x="72"
       y="35.955631"
       width="36"
       height="29.963024"
       rx="4"
       fill="#ffffff"
       id="rect6853"
       style="stroke-width:0.999383" />
    <rect
       x="192"
       y="233.71159"
       width="36"
       height="29.963024"
       rx="4"
       fill="#ffffff"
       id="rect6855"
       style="stroke-width:0.999383" />
  </g>
</svg>
